<svg width="24" height="24" fill="none" xmlns="http://www.w3.org/2000/svg"><path d="M5.31 4.185a.76.76 0 01-.002 1.08 9.358 9.358 0 00-2.779 6.664 9.36 9.36 0 002.84 6.723.76.76 0 01.01 1.08.77.77 0 01-1.085.01 10.883 10.883 0 01-3.3-7.813 10.88 10.88 0 013.23-7.745.77.77 0 011.085.001zm13.454.074a.77.77 0 011.086.01 10.88 10.88 0 013.144 7.66 10.88 10.88 0 01-3.214 7.729.77.77 0 01-1.085.001.76.76 0 01-.001-1.08 9.359 9.359 0 002.765-6.65 9.356 9.356 0 00-2.705-6.59.76.76 0 01.01-1.08z" fill="#F98641"/><path d="M8.218 7.336a.76.76 0 01-.036 1.079c-.971.904-1.56 2.14-1.56 3.496 0 1.371.602 2.62 1.594 3.527a.76.76 0 01.045 1.079.77.77 0 01-1.084.045c-1.282-1.172-2.09-2.82-2.09-4.651 0-1.811.79-3.442 2.046-4.611a.77.77 0 011.085.036zm7.606.039a.77.77 0 011.085-.024c1.225 1.165 1.992 2.775 1.992 4.56 0 1.806-.785 3.432-2.036 4.601a.77.77 0 01-1.084-.034.76.76 0 01.033-1.079c.967-.903 1.552-2.136 1.552-3.488 0-1.337-.572-2.557-1.518-3.457a.76.76 0 01-.024-1.08z" fill="#F98641"/><path fill-rule="evenodd" clip-rule="evenodd" d="M11.994 9.13a2.807 2.807 0 00-2.814 2.799 2.807 2.807 0 002.814 2.799 2.807 2.807 0 002.814-2.8 2.806 2.806 0 00-2.814-2.798zm-1.279 2.799c0-.703.573-1.273 1.28-1.273.706 0 1.278.57 1.278 1.273 0 .702-.572 1.272-1.279 1.272-.706 0-1.279-.57-1.279-1.272z" fill="#F98641"/></svg>