<svg width="20" height="20" fill="none" xmlns="http://www.w3.org/2000/svg"><path d="M15.83 2.5H4.165c-1.178 0-1.768 0-2.134.344-.366.343-.366.896-.366 2.002v.574c0 .865 0 1.298.216 1.656.217.359.612.581 1.402 1.026L5.71 9.47c.53.298.795.447.985.612.396.344.64.747.75 1.242.052.237.052.515.052 1.071v2.225c0 .758 0 1.137.21 1.432.21.296.583.441 1.329.733 1.565.612 2.348.918 2.905.57.556-.348.556-1.144.556-2.735v-2.225c0-.556 0-.834.053-1.071.11-.495.354-.898.75-1.242.19-.165.454-.314.985-.612l2.427-1.367c.79-.445 1.186-.667 1.402-1.026.217-.358.217-.79.217-1.656v-.574c0-1.106 0-1.659-.366-2.002-.366-.344-.956-.344-2.134-.344z" stroke="#fff" stroke-width="1.5"/></svg>