<svg width="20" height="20" fill="none" xmlns="http://www.w3.org/2000/svg"><path fill-rule="evenodd" clip-rule="evenodd" d="M3.54 7.095c0-3.385 2.934-6.054 6.457-6.054 3.524 0 6.459 2.669 6.459 6.054 0 3.176-1.97 6.904-5.146 8.262a3.354 3.354 0 01-2.625 0C5.508 13.999 3.54 10.271 3.54 7.095zM9.996 2.29c-2.92 0-5.208 2.192-5.208 4.804 0 2.773 1.755 5.987 4.387 7.113a2.11 2.11 0 001.643 0c2.632-1.126 4.387-4.34 4.387-7.113 0-2.612-2.29-4.804-5.209-4.804zm0 4.167a1.042 1.042 0 100 2.083 1.042 1.042 0 000-2.083zm-2.29 1.042a2.292 2.292 0 114.583 0 2.292 2.292 0 01-4.583 0zm-4.712 4.997a.625.625 0 01-.044.883c-.473.429-.66.839-.66 1.204 0 .636.602 1.42 2.071 2.081 1.41.635 3.403 1.044 5.636 1.044 2.234 0 4.226-.409 5.636-1.044 1.47-.66 2.073-1.445 2.073-2.081 0-.365-.188-.775-.661-1.204a.625.625 0 11.839-.926c.636.575 1.072 1.297 1.072 2.13 0 1.434-1.262 2.525-2.81 3.221-1.605.723-3.78 1.154-6.149 1.154-2.368 0-4.543-.431-6.149-1.154-1.547-.696-2.809-1.787-2.809-3.221 0-.833.436-1.555 1.072-2.13a.625.625 0 01.883.043z" fill="#F98641"/></svg>