<svg width="36" height="36" fill="none" xmlns="http://www.w3.org/2000/svg"><g clip-path="url(#clip0_3677_14810)"><path d="M0 18C0 8.059 8.059 0 18 0s18 8.059 18 18-8.059 18-18 18S0 27.941 0 18z" fill="#F68634"/><path d="M19.948 22.08l2.69 2.597c.552.53.552 1.393 0 1.924a1.445 1.445 0 01-1.992 0L18 24.05l-2.643 2.552a1.434 1.434 0 01-.997.399c-.36 0-.721-.133-.997-.399a1.328 1.328 0 010-1.924l2.69-2.597a9.211 9.211 0 01-2.794-1.117 1.333 1.333 0 01-.441-1.876c.413-.637 1.283-.83 1.943-.428a6.296 6.296 0 006.479 0c.66-.401 1.53-.21 1.944.428a1.334 1.334 0 01-.442 1.876 9.198 9.198 0 01-2.794 1.117z" fill="#fff"/><path fill-rule="evenodd" clip-rule="evenodd" d="M13.18 13.645c0 2.56 2.158 4.644 4.812 4.644 2.654 0 4.811-2.083 4.811-4.644S20.646 9 17.992 9s-4.812 2.084-4.812 4.645zm6.804 0c0-1.06-.894-1.923-1.992-1.923-1.098 0-1.993.863-1.993 1.923s.895 1.923 1.993 1.923 1.992-.863 1.992-1.923z" fill="#fff"/></g><defs><clipPath id="clip0_3677_14810"><path fill="#fff" d="M0 0h36v36H0z"/></clipPath></defs></svg>