<svg width="138" height="73" fill="none" xmlns="http://www.w3.org/2000/svg"><g clip-path="url(#clip0_3153_19145)"><g clip-path="url(#clip1_3153_19145)"><mask id="a" style="mask-type:luminance" maskUnits="userSpaceOnUse" x="0" y="25" width="138" height="24"><path d="M137.336 25h-137v24h137V25z" fill="#fff"/></mask><g mask="url(#a)" fill="#00985F"><path d="M13.989 25.305v12.13c0 .568-.45.96-.992.96H11.51c-.09 0-.135.088-.135.131v10.168c.36 0 .721.087 1.127.087 6.714 0 12.167-5.28 12.167-11.782 0-5.978-4.641-10.996-10.68-11.694zm-.27 18.152c-.857 0-1.488-.698-1.488-1.44 0-.829.721-1.44 1.488-1.44.856 0 1.487.699 1.487 1.44.09.786-.631 1.44-1.487 1.44zm3.56 0c-.857 0-1.488-.698-1.488-1.44 0-.829.721-1.44 1.488-1.44.856 0 1.487.699 1.487 1.44 0 .742-.586 1.44-1.487 1.44zm3.605 0c-.856 0-1.487-.698-1.487-1.44 0-.829.72-1.44 1.487-1.44.856 0 1.487.699 1.487 1.44 0 .742-.63 1.44-1.487 1.44z"/><path d="M12.504 25.262c-6.715 0-12.168 5.28-12.168 11.782 0 5.716 4.1 10.385 9.599 11.476V37.916c0-.48.45-.872.901-.96h1.487c.09 0 .136-.087.136-.13l.045-11.564zm-2.344 9.687c-.856 0-1.487-.698-1.487-1.44 0-.83.721-1.44 1.487-1.44.857 0 1.488.698 1.488 1.44s-.676 1.44-1.488 1.44zm124.153-3.272v4.451h-6.129v-4.45h-3.11v11.781h3.11v-4.756h6.129v4.756h3.019V31.677h-3.019zM83.659 33.03c-.496-1.047-1.487-1.615-2.478-1.615-.992 0-2.028.568-2.48 1.615L73.79 43.503h3.244l1.082-2.488h6.31l1.08 2.488h3.246L83.659 33.03zm-4.687 5.63l1.848-4.32c.09-.132.135-.132.225-.132s.225 0 .225.131l1.848 4.32h-4.146zm-31.546-9.077c-1.442 0-2.343.742-3.02 2.225l-3.92 8.858-3.966-8.901c-.63-1.44-1.577-2.226-3.02-2.226-1.351 0-2.703.873-2.703 2.924v10.952h3.02v-10.56l4.01 8.771c.496 1.266 1.442 2.008 2.659 2.008 1.307 0 2.163-.742 2.659-2.008l4.01-8.77v10.69h3.02V32.594c-.045-2.051-1.397-3.011-2.749-3.011zm8.067 11.389c-.135 0-.316-.131-.316-.306v-2.094h7.572v-2.4h-7.572v-1.79c0-.13.136-.305.316-.305h7.526V31.59h-9.013c-1.082 0-1.803.83-1.803 1.745v8.248c0 .872.766 1.745 1.803 1.745h9.013v-2.487h-7.526v.13zm12.618 2.487V34.47c0-.13.135-.305.316-.305h7.526v-2.488H66.94c-1.082 0-1.803.83-1.803 1.746v9.992l2.974.044zm54.98-5.847c0-4.102-1.847-6.022-6.444-6.022h-1.082c-4.596 0-6.444 1.964-6.444 6.022 0 4.014 1.848 6.022 6.444 6.022h.992c4.687-.088 6.534-2.008 6.534-6.022zm-6.534 3.534h-.992c-2.478 0-3.515-1.09-3.515-3.534 0-2.357.857-3.535 3.515-3.535h.992c2.569 0 3.515 1.178 3.515 3.535 0 2.4-.946 3.534-3.515 3.534zm-15.863-11.302h-6.04c-4.505 0-6.308 2.226-6.308 6.022 0 .611.09 1.179.135 1.659.496 2.705 2.163 4.363 6.355 4.363h1.351v1.527h3.02v-1.527h1.307c4.236 0 5.903-1.658 6.354-4.363.09-.48.135-1.048.135-1.659-.045-3.796-1.892-6.021-6.309-6.021zm-4.597 9.6h-1.352c-2.073 0-2.794-.741-3.245-1.963-.135-.436-.135-1.047-.135-1.658 0-2.488 1.217-3.535 2.93-3.535h1.847v7.157h-.045zm7.751-1.832c-.45 1.178-1.216 1.963-3.244 1.963h-1.352v-7.2h1.847c1.713 0 2.93 1.048 2.93 3.535-.045.655-.045 1.178-.181 1.702z"/></g></g></g><defs><clipPath id="clip0_3153_19145"><path fill="#fff" transform="translate(.336)" d="M0 0h137v73H0z"/></clipPath><clipPath id="clip1_3153_19145"><path fill="#fff" transform="translate(.336 25)" d="M0 0h137v24H0z"/></clipPath></defs></svg>