<svg width="69" height="39" fill="none" xmlns="http://www.w3.org/2000/svg"><g clip-path="url(#clip0_3677_14804)"><path d="M45.66 28.944v2.207h-.272v-2.458h.942v.248l-.67.003zm1.46 2.23c-.364 0-.543-.245-.543-.617v-1.27c0-.374.18-.617.543-.617.364 0 .543.243.543.618v1.268c0 .373-.18.618-.543.618zm0-.248c.19 0 .272-.13.272-.355v-1.297c0-.223-.09-.356-.272-.356-.182 0-.271.133-.271.356v1.297c-.011.225.081.355.271.355zm2.036-2.23v2.213h.179v.564h-.258v-.336h-.966v.336h-.253v-.564h.152a.558.558 0 00.106-.358l.09-1.855h.95zm-.272.248h-.434l-.079 1.604a.538.538 0 01-.108.36h.627l-.006-1.964zm-3.493 5.87h.272v-2.208h.58v2.208h.272v-2.456h-1.108l-.016 2.456zm2.35-.251h-.702v-.874h.575v-.245h-.575v-.846h.708v-.24h-.972v2.459h.972l-.005-.254zm1.41.586v-.335h-.967v.335h-.252v-.578h.152a.556.556 0 00.103-.358l.092-1.858h.95v2.216h.171v.578h-.25zm-.19-2.537h-.44l-.076 1.604a.553.553 0 01-.109.361h.624v-1.965zm1.541 1.711h-.6l-.09.496h-.244l.454-2.458h.382l.451 2.458h-.271l-.082-.496zm-.038-.234l-.271-1.41-.272 1.41h.543zm.86-1.477h.684v-.254h-.944v2.459h.271l-.01-2.205zm1.46 2.23c-.36 0-.542-.245-.542-.617v-1.27c0-.374.18-.617.543-.617.364 0 .543.243.543.618v1.268c.005.367-.174.612-.538.612l-.005.006zm0-.248c.194 0 .272-.13.272-.355v-1.297c0-.223-.087-.355-.271-.355-.185 0-.272.132-.272.355v1.297c-.005.22.087.35.277.35l-.005.005zm1.74-1.974v-.262h-.944v2.459h.272v-2.208l.673.011zm.522 1.712l-.09.496h-.244l.453-2.459h.383l.45 2.459h-.27l-.085-.496h-.597zm.035-.234h.527l-.272-1.41-.255 1.41zm-9.248 3.101l-.209.677v-1.853h-.233v2.459h.272l.347-1.128.255-.823v1.956h.239v-2.464h-.296l-.374 1.176zm2.308-.05h-.581v-1.126h-.272v2.459h.272v-1.105h.58v1.105h.272v-2.459h-.271v1.125zm1.3-1.106l.453 2.459h-.271l-.093-.497h-.597l-.076.471h-.241l.45-2.458.375.025zm.06 1.728l-.272-1.41-.271 1.41h.543zm1.107-1.75c-.361 0-.53.245-.53.617v1.269c0 .372.169.617.53.617s.543-.245.543-.617v-.305h-.25v.319c0 .223-.084.355-.271.355-.188 0-.272-.133-.272-.355v-1.334c0-.223.087-.355.272-.355.184 0 .271.133.271.355v.234h.25v-.22c-.003-.36-.171-.606-.538-.606l-.005.026zm.7.281h.437v2.208h.272v-2.208h.434v-.279h-1.135l-.008.28zm2.098-.25l.451 2.458h-.271l-.09-.496h-.597l-.093.496h-.244l.454-2.459h.39zm.06 1.728l-.271-1.41-.272 1.41h.543zm1.683-.054v.209a.527.527 0 01-.14.419.486.486 0 01-.403.145h-.543v-2.476h.543c.366 0 .513.184.513.544v.116c0 .262-.07.423-.271.488a.46.46 0 01.245.202.489.489 0 01.061.32l-.005.033zm-.814-.631h.203c.21 0 .318-.07.318-.327v-.18c0-.218-.07-.322-.272-.322h-.271l.022.829zm.562.614c0-.282-.106-.366-.332-.366h-.23v.916h.271c.193 0 .271-.104.271-.333l.02-.217zm1.343-.564h-.58v-1.122h-.272v2.459h.271v-1.105h.581v1.105h.271v-2.459h-.27v1.122zm.977.051l-.209.677v-1.85h-.233v2.459h.271l.348-1.128.255-.823v1.956h.236v-2.464h-.293l-.375 1.173zm2.098-1.156h-.271l-.627 1.187v-1.204h-.272v2.459h.272v-.826l.138-.243.505 1.069h.272l-.62-1.33.603-1.112zm.988 0l.454 2.459h-.272l-.092-.497h-.597l-.082.474h-.241l.453-2.458.377.022zm.063 1.729l-.272-1.41-.271 1.41h.543zm-32.797-14.61s-.89 2.884-4.058 6.137c-3.167 3.254-7.974 5.216-7.974 5.216a23.535 23.535 0 008.791-4.328c4.131-3.327 3.241-7.026 3.241-7.026zM21.62 34.68c.21.099.418.195.633.282l-.133-.431-.5.15zm9.79-26.85a.354.354 0 00.204-.062.39.39 0 00.057-.582.351.351 0 00-.398-.081.368.368 0 00-.163.14.388.388 0 00.046.475c.068.07.16.11.255.11zm-8.46 26.435l.391 1.128c.46.158.926.297 1.398.417l-.643-1.973a26.77 26.77 0 01-1.146.428zm6.876-23.094c0 2.225 3.257 4.748 3.998 6.203a32.754 32.754 0 011.506 3.713 8.953 8.953 0 00-.271-2.52c-.34-1.128-2.728-10.22-2.728-10.22s-.622-.029-.5.487c.123.516 1.854 6.626 1.854 6.626l-2.426-6.88s-1.433 1.153-1.433 2.591zM68.98 23.012a7.232 7.232 0 01-1.713 4.192 6.769 6.769 0 01-3.816 2.245 6.6 6.6 0 01-4.342-.629 6.97 6.97 0 01-3.079-3.243H44.607c-1.344 3.19-3.554 5.904-6.36 7.81a16.776 16.776 0 01-9.438 2.918c-1-.004-2-.099-2.985-.282l-.92-2.571c7.396-3.383 9.62-4.965 9.966-8.405.174-1.691-.716-3.358-.922-3.99a8.766 8.766 0 01-.413-2.1 15.553 15.553 0 00-.187-1.573s.34.716.616 1.291c.016.031.027.054.038.071.66 1.542 1.186 2.904 1.284 3.287.089.273.14.558.152.846 0 0 .77-1.054.32-3.101-.45-2.047-3.045-11.667-3.045-11.667s.14-2.227-1.233-2.87a3.286 3.286 0 00-3.281.166c-.668.468-1.553.184-1.553.184.086.202.207.388.356.547.173.135.379.217.594.236a3.22 3.22 0 01-.733.564c-.215.1-.45.147-.686.136.278.132.572.227.874.282.271 0 .328-.029.328-.029a6.822 6.822 0 00.931 3.49c1.018 1.642 3.236 4.847 2.636 7.23-.6 2.382-1.206 2.752-3.03 3.034-1.823.281-4.91.873-7.244 2.867-1.857 1.587-3.3 5.729-3.822 7.347-.423 1.44-.423 1.847-.423 1.847a18.262 18.262 0 01-.271-2.571 17.979 17.979 0 01-3.271-5.31v.31H0l9.899-7.992c.46-.369.835-.84 1.094-1.38.26-.54.4-1.135.407-1.739v-.18a4.959 4.959 0 00-1.345-3.23 4.608 4.608 0 00-3.09-1.445 4.51 4.51 0 00-1.852.302 4.646 4.646 0 00-1.589 1.035c-.456.452-.82.997-1.068 1.6a5.01 5.01 0 00-.377 1.907H.926c0-.817.159-1.626.469-2.378.31-.752.763-1.43 1.332-1.994a5.79 5.79 0 011.98-1.29 5.62 5.62 0 012.31-.374 5.724 5.724 0 013.402 1.365 6.104 6.104 0 011.96 3.194c1.09-3.55 3.218-6.659 6.089-8.894 2.87-2.234 6.34-3.483 9.926-3.573 3.586-.09 7.11.985 10.08 3.073 2.971 2.089 5.241 5.088 6.494 8.579a6.02 6.02 0 011.694-2.384 5.714 5.714 0 012.584-1.258 5.598 5.598 0 012.848.172c.92.303 1.754.84 2.425 1.561h12.42l-3.696 5.222a6.791 6.791 0 014.282 2.607 7.292 7.292 0 011.456 4.93v.005zm-56.425 1.367a18.549 18.549 0 01-.982-5.977c0-.316 0-.629.021-.942-.28.4-.613.758-.99 1.06l-7.253 5.86h9.204zm33.49-5.977a18.503 18.503 0 01-.989 6.005l8.458-6.828c.461-.368.837-.84 1.098-1.38a4.14 4.14 0 00.411-1.739v-.18a4.976 4.976 0 00-.832-2.615 4.706 4.706 0 00-2.07-1.722 4.507 4.507 0 00-2.637-.274 4.611 4.611 0 00-2.357 1.262 4.814 4.814 0 00-1.071 1.598 4.968 4.968 0 00-.373 1.909h-.06a18.71 18.71 0 01.421 3.964zm21.811 4.071c0-.775-.147-1.543-.433-2.26a5.924 5.924 0 00-1.232-1.915 5.674 5.674 0 00-1.845-1.28 5.5 5.5 0 00-2.176-.449h-1.135l3.632-5.134h-9.28c.477.852.744 1.814.776 2.8v.223a5.376 5.376 0 01-.531 2.261 5.175 5.175 0 01-1.426 1.796l-7.25 5.864h8.637a7.34 7.34 0 01-.252-1.906h1.148a6.01 6.01 0 001.663 4.17 5.573 5.573 0 004.015 1.728c1.506 0 2.95-.621 4.015-1.727a6.016 6.016 0 001.663-4.17h.011z" fill="url(#paint0_linear_3677_14804)"/></g><defs><linearGradient id="paint0_linear_3677_14804" x1="34.499" y1=".499" x2="34.499" y2="38.499" gradientUnits="userSpaceOnUse"><stop stop-color="#F1E3B5"/><stop offset=".4" stop-color="#F1E3B5"/><stop offset=".46" stop-color="#F1E3B5"/><stop offset=".52" stop-color="#F0E2B3"/><stop offset=".54" stop-color="#EFDEAC"/><stop offset=".55" stop-color="#EBD6A1"/><stop offset=".57" stop-color="#E0BE7A"/><stop offset=".58" stop-color="#D9AE60"/><stop offset=".97" stop-color="#8C5014"/></linearGradient><clipPath id="clip0_3677_14804"><path fill="#fff" transform="translate(0 .5)" d="M0 0h69v38H0z"/></clipPath></defs></svg>