<svg width="138" height="73" fill="none" xmlns="http://www.w3.org/2000/svg"><g clip-path="url(#clip0_3153_19164)"><mask id="a" style="mask-type:luminance" maskUnits="userSpaceOnUse" x="8" y="20" width="123" height="34"><path d="M130.445 20h-122v34h122V20z" fill="#fff"/></mask><g mask="url(#a)"><mask id="b" style="mask-type:luminance" maskUnits="userSpaceOnUse" x="-22" y="-9" width="183" height="92"><path d="M-21.656-8.926H160.55v91.851H-21.656v-91.85z" fill="#fff"/></mask><g mask="url(#b)"><path d="M23.425 24.066h-2.35c-4.308 0-6.57 2.08-6.57 5.157 0 3.494 1.566 5.115 4.786 7.195l2.655 1.705-7.66 10.938h-5.7l6.876-9.773c-3.96-2.704-6.18-5.324-6.18-9.774 0-5.573 4.047-9.358 11.75-9.358h7.66v28.905h-5.267V24.066z" fill="#FC3F1D"/><path d="M66.208 45.15h-7.31c1.435-3.16 1.827-8.858 1.827-12.476v-.624h5.483v13.1zm5.179-17.01h-15.1v1.79c0 5.114-.35 11.727-2.177 15.22H52.5v8.693h4.787V49.06h11.62v4.783h4.786v-8.692h-2.306V28.14zm-26.25 8.279h-6.92v-8.276H33.04v20.92h5.179v-8.735h6.919v8.734h5.178v-20.92h-5.178v8.277zm80.161-4.783c2.002 0 3.961.665 5.005 1.29v-4.201c-1.088-.583-3.003-.998-5.57-.998-6.615 0-10.053 4.533-10.053 10.896 0 6.987 3.351 10.855 10.27 10.855 2.394 0 4.091-.416 5.353-1.29v-4.034c-1.306.874-2.872 1.415-5.048 1.415-3.7 0-5.222-2.745-5.222-7.07 0-4.534 1.871-6.863 5.265-6.863zm-11.313-3.496h-5.222l-7.311 9.65v-9.65h-5.179v20.92h5.179V38.788l7.659 10.273h5.875l-8.312-11.272 7.311-9.648zM87.53 36.71h-7.224c.13-3.327 1.392-5.074 3.873-5.074 2.567 0 3.35 2.038 3.35 4.658v.416zm-3.264-8.983c-6.31 0-9.313 4.616-9.313 10.938 0 7.278 3.742 10.813 10.357 10.813 3.307 0 5.745-.832 7.268-1.83v-4.034c-1.61 1.04-4.309 1.955-6.833 1.955-3.786 0-5.222-1.705-5.44-5.199h12.49v-2.62c0-7.279-3.35-10.023-8.53-10.023z" fill="#191715"/></g></g></g><defs><clipPath id="clip0_3153_19164"><path fill="#fff" transform="translate(8.445 20)" d="M0 0h122v34H0z"/></clipPath></defs></svg>