<svg width="138" height="73" fill="none" xmlns="http://www.w3.org/2000/svg"><g clip-path="url(#clip0_3153_19155)"><mask id="a" style="mask-type:luminance" maskUnits="userSpaceOnUse" x="10" y="16" width="119" height="42"><path d="M128.891 16h-118v42h118V16z" fill="#fff"/></mask><g mask="url(#a)" fill-rule="evenodd" clip-rule="evenodd"><path d="M31.805 25.587c-1.66 0-3.003-1.327-3.003-2.965s1.344-2.966 3.003-2.966c1.658 0 3.003 1.328 3.003 2.966 0 1.638-1.344 2.965-3.003 2.965zm0-9.418c-3.618 0-6.55 2.895-6.55 6.468a6.385 6.385 0 001.33 3.906l.435.595 4.784 5.699 5.221-6.295a6.387 6.387 0 001.33-3.906c0-3.572-2.934-6.468-6.55-6.468v.001zm2.5 30.051V35.366h-4.852v5.098l-4.85-5.753-13.5 16.019 4.491 3.692 9.01-10.69 9.012 10.69 4.49-3.692-3.8-4.51z" fill="#0468FF"/><path d="M64.063 35.35H59.76v14.795h-8.505V35.35h-4.302v18.725h15.844v3.757h3.899v-7.686h-2.633V35.349v.001zm9.944 12.606V35.35h-4.301v18.725h4.301l9.011-12.606v12.606h4.303V35.35h-4.302l-9.012 12.606zm50.39-12.606v7.358h-8.784V35.35h-4.303v18.725h4.303v-7.411h8.784v7.41h4.276V35.35h-4.276zm-21.533 10.818c0 1.47-.422 2.62-1.252 3.42-.841.808-2.062 1.217-3.628 1.217-1.96 0-3.04-.871-3.04-2.456 0-1.651 1.413-2.637 3.776-2.637h4.143l.001.456zm-3.592-11.176c-2.248 0-4.184.595-5.6 1.719-1.325 1.05-2.11 2.519-2.216 4.137h4.242c.193-.87 1.134-2.225 3.574-2.225 2.249 0 3.591 1.326 3.591 3.547v.092h-4.328c-2.561 0-4.54.573-5.883 1.701-1.285 1.082-1.936 2.618-1.936 4.568 0 1.68.67 3.19 1.888 4.247 1.247 1.085 2.98 1.658 5.012 1.658 3.182 0 4.913-1.533 5.508-2.19l.295 1.604.041.222h3.632V42.17c0-4.427-2.997-7.178-7.82-7.178z" fill="#191715"/></g></g><defs><clipPath id="clip0_3153_19155"><path fill="#fff" transform="translate(10.89 16)" d="M0 0h118v42H0z"/></clipPath></defs></svg>