<svg width="24" height="24" fill="none" xmlns="http://www.w3.org/2000/svg"><path d="M13.26 1.88a.751.751 0 01.861-.62c.026.005.107.02.15.03.085.018.204.048.352.09.297.087.712.23 1.21.458.996.457 2.321 1.256 3.697 2.631 1.376 1.376 2.175 2.702 2.632 3.698.228.498.37.912.457 1.21a5.655 5.655 0 01.113.454l.005.031a.765.765 0 01-.617.878.75.75 0 01-.86-.617 4.21 4.21 0 00-.082-.327 7.395 7.395 0 00-.38-1.004c-.39-.85-1.09-2.024-2.328-3.262-1.238-1.238-2.412-1.939-3.263-2.329a7.394 7.394 0 00-1.003-.38 5.749 5.749 0 00-.318-.08.759.759 0 01-.626-.861z" fill="#F98641"/><path fill-rule="evenodd" clip-rule="evenodd" d="M13.486 5.33a.75.75 0 01.927-.516l-.206.721.206-.72h.003l.003.001.008.002.02.006.056.02a3 3 0 01.177.07c.146.062.345.158.59.303.489.29 1.157.77 1.942 1.556.785.785 1.266 1.453 1.556 1.942.145.245.241.444.304.59a2.969 2.969 0 01.088.233l.007.02.002.008v.003l.001.001s0 .002-.72.208l.72-.206a.75.75 0 01-1.439.422l-.003-.01a3.67 3.67 0 00-.25-.504c-.224-.377-.627-.947-1.327-1.647-.7-.7-1.269-1.102-1.645-1.325a3.662 3.662 0 00-.504-.25l-.011-.004a.75.75 0 01-.505-.925zm-8.479-.923c1.68-1.68 4.516-1.553 5.686.543l.649 1.163c.763 1.37.438 3.096-.68 4.228a.63.63 0 00-.104.336c-.013.257.078.85.997 1.768.918.918 1.51 1.01 1.767.997a.63.63 0 00.337-.104c1.131-1.118 2.859-1.444 4.227-.68l1.163.65c2.096 1.169 2.224 4.004.544 5.684-.899.899-2.093 1.697-3.498 1.75-2.08.08-5.536-.458-8.958-3.88-3.421-3.421-3.959-6.877-3.88-8.958.053-1.404.852-2.599 1.75-3.497zM9.383 5.68c-.6-1.073-2.21-1.32-3.315-.214-.775.776-1.28 1.631-1.312 2.494-.066 1.736.363 4.761 3.442 7.84 3.08 3.08 6.105 3.508 7.84 3.443.863-.033 1.72-.537 2.494-1.312 1.106-1.106.86-2.716-.214-3.315l-1.163-.649c-.723-.404-1.74-.266-2.453.447-.07.07-.516.487-1.307.525-.81.04-1.791-.325-2.9-1.434-1.111-1.11-1.475-2.092-1.435-2.902.038-.792.455-1.237.524-1.307.714-.713.851-1.73.448-2.453l-.65-1.163z" fill="#F98641"/></svg>