<svg width="24" height="24" fill="none" xmlns="http://www.w3.org/2000/svg"><path fill-rule="evenodd" clip-rule="evenodd" d="M7.695 1h8.11c1.367 0 2.47 0 3.337.117.9.12 1.658.38 2.26.981.602.602.86 1.36.982 2.26.116.867.116 1.97.116 3.337v4.11c0 1.367 0 2.47-.116 3.337-.122.9-.38 1.658-.982 2.26-.498.498-1.105.763-1.816.907a8.826 8.826 0 01-1.206.146l.007.016c.273.64.04 1.385-.58 1.736a1.535 1.535 0 01-.527.166c-.146.022-.33.04-.533.06l-.02.002a6.67 6.67 0 00-.303.036.1.1 0 00-.033.02.059.059 0 00-.012.015 5.908 5.908 0 00-.034.273l-.002.02c-.02.194-.039.372-.063.515a1.456 1.456 0 01-.181.53c-.375.607-1.122.794-1.736.553a1.62 1.62 0 01-.457-.293 10.658 10.658 0 01-.398-.37l-1.758-1.685-1.758 1.685c-.15.144-.284.272-.398.37a1.62 1.62 0 01-.457.294c-.614.24-1.361.053-1.736-.554a1.458 1.458 0 01-.18-.53 7.9 7.9 0 01-.064-.514l-.003-.02a5.924 5.924 0 00-.033-.274.061.061 0 00-.012-.015.1.1 0 00-.033-.02 6.692 6.692 0 00-.304-.036l-.02-.002c-.203-.02-.386-.038-.532-.06a1.54 1.54 0 01-.527-.166 1.367 1.367 0 01-.58-1.736l.007-.016a9.288 9.288 0 01-1.094-.124c-.758-.14-1.403-.404-1.928-.93-.602-.601-.86-1.36-.981-2.26C1 14.276 1 13.173 1 11.806v-4.11c0-1.367 0-2.47.117-3.337.12-.9.38-1.658.981-2.26.602-.602 1.36-.86 2.26-.981C5.225 1 6.328 1 7.695 1zM6.483 16.996l.816-.782.709-.71a3.75 3.75 0 017.484 0l.71.71.86.825v-.043c.986-.01 1.69-.048 2.225-.156.514-.105.822-.267 1.054-.499.277-.277.457-.665.556-1.4.101-.755.103-1.756.103-3.191v-4c0-1.435-.002-2.437-.103-3.192-.099-.734-.28-1.122-.556-1.399-.277-.277-.665-.457-1.4-.556-.755-.101-1.756-.103-3.191-.103h-8c-1.435 0-2.437.002-3.192.103-.734.099-1.122.28-1.399.556-.277.277-.457.665-.556 1.4-.101.754-.103 1.756-.103 3.191v4c0 1.435.002 2.437.103 3.192.099.734.28 1.122.556 1.399.243.243.572.41 1.138.515.539.099 1.234.13 2.186.14zm8.683.303a3.763 3.763 0 01-2.078 1.955l1.444 1.384c.128.123.219.21.29.274.009-.076.02-.17.032-.292l.005-.05c.02-.184.042-.401.118-.598.168-.435.518-.764.95-.917.194-.069.409-.09.602-.108a30.899 30.899 0 00.321-.032l-.214-.206-1.47-1.41zm-3.386.7l-.03-.028-.03.029a2.25 2.25 0 11.06 0zm-1.368 1.255l-1.444 1.384c-.128.123-.219.21-.29.274a13.98 13.98 0 01-.032-.292l-.005-.05c-.02-.184-.042-.401-.118-.598a1.577 1.577 0 00-.95-.917 2.532 2.532 0 00-.602-.108 24.38 24.38 0 01-.32-.032c.056-.056.126-.123.213-.206l1.47-1.41a3.763 3.763 0 002.078 1.955zM8 5.75A.75.75 0 018.75 5h6a.75.75 0 010 1.5h-6A.75.75 0 018 5.75zm-2 3.5a.75.75 0 01.75-.75h10a.75.75 0 010 1.5h-10A.75.75 0 016 9.25z" fill="#191715"/></svg>