<svg width="36" height="36" fill="none" xmlns="http://www.w3.org/2000/svg"><g clip-path="url(#clip0_3677_14814)"><path d="M18 36c9.941 0 18-8.059 18-18S27.941 0 18 0 0 8.059 0 18s8.059 18 18 18z" fill="url(#paint0_linear_3677_14814)"/><path d="M6.701 18.88c2.104-1.158 4.453-2.126 6.648-3.098 3.776-1.592 7.566-3.157 11.395-4.614.745-.249 2.084-.491 2.215.613-.072 1.562-.368 3.116-.57 4.67-.515 3.416-1.11 6.82-1.69 10.226-.2 1.134-1.62 1.721-2.53.995-2.185-1.476-4.387-2.937-6.544-4.447-.706-.718-.051-1.75.58-2.262 1.8-1.773 3.708-3.28 5.414-5.145.46-1.111-.9-.175-1.348.112-2.464 1.698-4.867 3.5-7.464 4.991-1.327.73-2.873.106-4.2-.301-1.189-.492-2.931-.989-1.906-1.74z" fill="#fff"/></g><defs><linearGradient id="paint0_linear_3677_14814" x1="13.502" y1="1.501" x2="4.502" y2="22.5" gradientUnits="userSpaceOnUse"><stop stop-color="#37AEE2"/><stop offset="1" stop-color="#1E96C8"/></linearGradient><clipPath id="clip0_3677_14814"><path fill="#fff" d="M0 0h36v36H0z"/></clipPath></defs></svg>