<svg width="24" height="24" fill="none" xmlns="http://www.w3.org/2000/svg"><path fill-rule="evenodd" clip-rule="evenodd" d="M4 8.425A3.751 3.751 0 118.425 4h6.65A3.751 3.751 0 1119.5 8.425v6.65a3.751 3.751 0 11-4.425 4.425h-6.65A3.751 3.751 0 114 15.075v-6.65zM2.5 4.75a2.25 2.25 0 114.5 0 2.25 2.25 0 01-4.5 0zm3 10.325v-6.65A3.754 3.754 0 008.425 5.5h6.65A3.755 3.755 0 0018 8.425v6.65A3.755 3.755 0 0015.075 18h-6.65A3.755 3.755 0 005.5 15.075zM4.75 16.5a2.25 2.25 0 100 4.5 2.25 2.25 0 000-4.5zM21 4.75a2.25 2.25 0 11-4.5 0 2.25 2.25 0 014.5 0zm-4.5 14a2.25 2.25 0 114.5 0 2.25 2.25 0 01-4.5 0z" fill="#fff"/></svg>