<svg width="24" height="24" fill="none" xmlns="http://www.w3.org/2000/svg"><path fill-rule="evenodd" clip-rule="evenodd" d="M12.178 8a3.75 3.75 0 100 7.5 3.75 3.75 0 000-7.5zm-2.25 3.75a2.25 2.25 0 114.5 0 2.25 2.25 0 01-4.5 0z" fill="#fff"/><path fill-rule="evenodd" clip-rule="evenodd" d="M12.153 1c-.444 0-.816 0-1.12.02a2.823 2.823 0 00-.907.19 2.75 2.75 0 00-1.488 1.488c-.146.35-.185.72-.2 1.122a.868.868 0 01-.416.731.868.868 0 01-.841-.005c-.356-.188-.695-.339-1.072-.389a2.75 2.75 0 00-2.033.545 2.83 2.83 0 00-.617.691c-.17.254-.356.575-.578.96l-.025.044c-.222.385-.408.706-.542.98-.14.286-.25.568-.29.88a2.75 2.75 0 00.544 2.033c.232.301.532.52.872.734a.868.868 0 01.426.726.868.868 0 01-.426.726c-.34.214-.64.433-.872.734a2.75 2.75 0 00-.544 2.033c.04.312.15.594.29.88.134.274.32.595.542.98l.025.044c.222.385.408.706.578.96.177.263.368.5.617.69a2.75 2.75 0 002.033.546c.376-.05.716-.2 1.072-.389a.867.867 0 01.841-.005c.24.138.404.408.416.731.015.402.054.772.2 1.122a2.75 2.75 0 001.488 1.489c.29.12.59.167.907.188.305.021.676.021 1.12.021h.05c.445 0 .816 0 1.12-.02a2.82 2.82 0 00.908-.19 2.75 2.75 0 001.488-1.488c.145-.35.184-.72.2-1.122a.868.868 0 01.415-.732.868.868 0 01.842.006c.355.188.695.339 1.071.388a2.75 2.75 0 002.033-.544c.25-.192.44-.428.617-.691.17-.254.356-.575.578-.96l.025-.044a17.9 17.9 0 00.543-.98c.14-.286.249-.569.29-.88a2.75 2.75 0 00-.545-2.033c-.231-.301-.532-.52-.872-.734a.868.868 0 01-.426-.726c0-.278.152-.554.426-.726.34-.214.641-.433.872-.734a2.75 2.75 0 00.545-2.033 2.823 2.823 0 00-.29-.88c-.135-.274-.32-.595-.542-.98l-.026-.044a17.726 17.726 0 00-.578-.96 2.823 2.823 0 00-.616-.69 2.75 2.75 0 00-2.034-.546c-.376.05-.716.2-1.071.389a.868.868 0 01-.842.005.868.868 0 01-.415-.731c-.016-.402-.055-.772-.2-1.122a2.75 2.75 0 00-1.488-1.489c-.29-.12-.59-.167-.907-.188C13.019 1 12.648 1 12.204 1h-.051zM10.7 2.595c.077-.032.194-.061.435-.078.247-.017.567-.017 1.043-.017s.796 0 1.043.017c.241.017.358.046.436.078.306.127.55.37.676.677.04.096.073.247.087.604.03.792.438 1.555 1.164 1.974.726.42 1.592.392 2.293.022.316-.167.463-.214.566-.227a1.25 1.25 0 01.924.247c.067.051.15.138.285.338.139.206.299.483.537.895.238.412.398.69.507.912.106.217.139.333.15.416a1.25 1.25 0 01-.248.924c-.064.083-.177.187-.48.377-.671.422-1.128 1.158-1.128 1.996 0 .838.457 1.574 1.128 1.996.303.19.416.294.48.377.202.263.29.595.248.924-.011.083-.044.2-.15.416-.11.223-.269.5-.507.912-.238.412-.398.689-.537.895-.134.2-.219.287-.285.338a1.25 1.25 0 01-.924.247c-.104-.013-.25-.06-.566-.227-.701-.37-1.567-.398-2.293.021a2.367 2.367 0 00-1.164 1.975c-.014.357-.047.508-.087.604a1.25 1.25 0 01-.676.677c-.078.032-.195.061-.435.078-.248.017-.568.017-1.044.017-.476 0-.796 0-1.043-.017-.24-.017-.358-.046-.435-.078a1.25 1.25 0 01-.677-.677c-.04-.096-.073-.247-.086-.604-.03-.792-.439-1.555-1.165-1.974-.726-.42-1.591-.392-2.292-.022-.316.167-.463.214-.567.227a1.25 1.25 0 01-.924-.247c-.066-.051-.15-.138-.285-.338a17.055 17.055 0 01-.537-.895c-.238-.412-.397-.69-.506-.912-.106-.217-.14-.333-.15-.416a1.25 1.25 0 01.247-.924c.064-.083.178-.187.48-.377.672-.422 1.128-1.158 1.128-1.996 0-.838-.456-1.574-1.128-1.996-.302-.19-.416-.294-.48-.377a1.25 1.25 0 01-.247-.924c.01-.083.044-.2.15-.416.109-.223.268-.5.507-.912.238-.412.398-.689.536-.895.135-.2.219-.287.285-.338a1.25 1.25 0 01.924-.247c.104.013.251.06.567.227.701.37 1.566.398 2.292-.022.726-.419 1.135-1.182 1.165-1.974.013-.357.046-.508.086-.604.127-.307.37-.55.677-.677z" fill="#fff"/></svg>