<svg width="24" height="24" fill="none" xmlns="http://www.w3.org/2000/svg"><path fill-rule="evenodd" clip-rule="evenodd" d="M11.75 2.5a9.25 9.25 0 100 18.5 9.25 9.25 0 000-18.5zM1 11.75C1 5.813 5.813 1 11.75 1S22.5 5.813 22.5 11.75 17.687 22.5 11.75 22.5 1 17.687 1 11.75zM10.912 6h2.338a3.25 3.25 0 010 6.5H10.5v.5h1.25a.75.75 0 010 1.5H10.5v2.25a.75.75 0 01-1.5 0V14.5h-.25a.75.75 0 010-1.5H9v-.5h-.25a.75.75 0 010-1.5H9V7.912c0-.146 0-.297.022-.436a1.75 1.75 0 011.454-1.454c.139-.022.29-.022.435-.022zm-.412 5h2.75a1.75 1.75 0 100-3.5h-2.3a8.208 8.208 0 00-.24.003.25.25 0 00-.207.206l-.002.043a8.1 8.1 0 00-.001.198V11z" fill="#fff"/></svg>