<svg width="20" height="20" fill="none" xmlns="http://www.w3.org/2000/svg"><g clip-path="url(#clip0_3720_14028)"><path d="M12.827 3.377l-.502.558.502-.558zm3.299 2.97l-.502.557.502-.558zm1.918 2.114l-.685.305.685-.305zM2.642 17.356l.53-.53-.53.53zm14.714 0l-.53-.53.53.53zm-5.69.227H8.333v1.5h3.333v-1.5zm-9.25-5.917V8.333h-1.5v3.333h1.5zm15.167-.364v.364h1.5v-.364h-1.5zm-5.258-7.367l3.3 2.969 1.003-1.115-3.3-2.97-1.003 1.116zm6.758 7.367c0-1.396.015-2.319-.353-3.146l-1.37.61c.207.468.223 1.007.223 2.536h1.5zm-3.459-4.398c1.136 1.022 1.527 1.394 1.735 1.862l1.37-.61c-.368-.827-1.064-1.433-2.101-2.367l-1.004 1.115zM8.358 2.416c1.327 0 1.797.012 2.214.171l.537-1.4C10.373.904 9.572.916 8.358.916v1.5zm4.97.404c-.897-.808-1.482-1.35-2.219-1.633l-.537 1.4c.417.16.771.464 1.753 1.348L13.33 2.82zM8.334 17.583c-1.593 0-2.712-.002-3.558-.116-.825-.11-1.277-.315-1.602-.641l-1.061 1.06c.65.651 1.472.935 2.463 1.068.97.13 2.208.129 3.758.129v-1.5zM.916 11.666c0 1.55-.002 2.788.129 3.758.133.99.416 1.812 1.067 2.463l1.06-1.061c-.325-.326-.53-.778-.64-1.602-.114-.847-.116-1.965-.116-3.558h-1.5zm10.75 7.417c1.55 0 2.788.001 3.758-.129.99-.133 1.812-.417 2.463-1.067l-1.061-1.061c-.326.326-.778.53-1.602.641-.847.114-1.965.116-3.558.116v1.5zm5.917-7.417c0 1.593-.002 2.711-.116 3.558-.11.824-.315 1.276-.641 1.602l1.06 1.06c.651-.65.935-1.472 1.068-2.462.13-.97.129-2.208.129-3.758h-1.5zM2.416 8.333c0-1.593.002-2.712.115-3.558.111-.825.316-1.277.642-1.602L2.112 2.112c-.65.65-.934 1.472-1.067 2.463-.13.97-.129 2.208-.129 3.758h1.5zM8.358.916c-1.559 0-2.803-.002-3.776.129-.994.133-1.819.416-2.47 1.067l1.06 1.06c.326-.324.78-.53 1.609-.64.85-.114 1.976-.116 3.577-.116v-1.5z" fill="#fff"/><path d="M10.834 2.084v2.083c0 1.965 0 2.947.61 3.557.61.61 1.592.61 3.557.61h3.333" stroke="#fff" stroke-width="1.5"/></g><defs><clipPath id="clip0_3720_14028"><path fill="#fff" d="M0 0h20v20H0z"/></clipPath></defs></svg>