<svg width="36" height="36" fill="none" xmlns="http://www.w3.org/2000/svg"><g clip-path="url(#clip0_3677_14817)"><circle cx="18" cy="18" r="24" fill="#4680C2"/><path fill-rule="evenodd" clip-rule="evenodd" d="M28.482 12.902c.163-.509 0-.879-.722-.879h-2.4c-.606 0-.885.324-1.048.671 0 0-1.235 2.96-2.96 4.88-.559.556-.815.74-1.118.74-.163 0-.373-.184-.373-.693v-4.742c0-.601-.186-.879-.699-.879h-3.774c-.373 0-.606.278-.606.555 0 .579.862.717.955 2.337v3.515c0 .764-.14.903-.442.903-.816 0-2.796-2.984-3.985-6.385-.233-.67-.466-.925-1.071-.925H7.815c-.699 0-.815.324-.815.67 0 .625.815 3.771 3.798 7.935 1.98 2.845 4.8 4.372 7.34 4.372 1.537 0 1.723-.347 1.723-.925V21.9c0-.694.14-.81.63-.81.349 0 .978.186 2.4 1.55C24.52 24.26 24.8 25 25.71 25h2.4c.698 0 1.025-.347.838-1.018-.21-.67-1.002-1.642-2.027-2.799-.559-.647-1.398-1.364-1.654-1.712-.35-.462-.256-.647 0-1.064-.023 0 2.912-4.117 3.215-5.505z" fill="#fff"/></g><defs><clipPath id="clip0_3677_14817"><rect width="36" height="36" rx="18" fill="#fff"/></clipPath></defs></svg>