<svg width="24" height="24" fill="none" xmlns="http://www.w3.org/2000/svg"><path d="M7 11a4.5 4.5 0 110-9.002A4.5 4.5 0 017 11zm10.5 4a4 4 0 110-8 4 4 0 010 8zm0 1a4.5 4.5 0 014.5 4.5v.5h-9v-.5a4.5 4.5 0 014.5-4.5zM7 12a5.001 5.001 0 015 5v4H2v-4a5 5 0 015-5z" fill="url(#paint0_linear_3682_17570)"/><defs><linearGradient id="paint0_linear_3682_17570" x1="2" y1="10.733" x2="22" y2="10.733" gradientUnits="userSpaceOnUse"><stop stop-color="#EB7E3E"/><stop offset=".832" stop-color="#F5AE5C"/><stop offset="1" stop-color="#FFB35A"/></linearGradient></defs></svg>