<svg width="24" height="24" fill="none" xmlns="http://www.w3.org/2000/svg"><path d="M12 17.253a.75.75 0 01-.372-.1l-6.566-3.751a.375.375 0 00-.562.325v3.526a.75.75 0 00.386.655l6.75 3.75a.75.75 0 00.728 0l6.75-3.75a.75.75 0 00.386-.655v-3.527a.376.376 0 00-.563-.325l-6.565 3.753a.75.75 0 01-.372.099z" fill="url(#paint0_linear_3682_10925)"/><path d="M23.247 8.93v-.006a.75.75 0 00-.375-.575l-10.5-6a.75.75 0 00-.744 0l-10.5 6a.75.75 0 000 1.302l10.5 6a.75.75 0 00.744 0l9.238-5.278a.094.094 0 01.14.08v6.776c0 .403.31.75.715.77a.752.752 0 00.786-.75v-8.25a.712.712 0 00-.004-.07z" fill="url(#paint1_linear_3682_10925)"/><defs><linearGradient id="paint0_linear_3682_10925" x1="4.5" y1="17.213" x2="19.5" y2="17.213" gradientUnits="userSpaceOnUse"><stop stop-color="#EB7E3E"/><stop offset=".832" stop-color="#F5AE5C"/><stop offset="1" stop-color="#FFB35A"/></linearGradient><linearGradient id="paint1_linear_3682_10925" x1=".75" y1="9.49" x2="23.251" y2="9.49" gradientUnits="userSpaceOnUse"><stop stop-color="#EB7E3E"/><stop offset=".832" stop-color="#F5AE5C"/><stop offset="1" stop-color="#FFB35A"/></linearGradient></defs></svg>